<svg id="Ebene_1" data-name="Ebene 1" xmlns="http://www.w3.org/2000/svg" viewBox="0 0 634 447"><defs><style>.cls-1{fill:#303131;}.cls-2{fill:#fff;}</style></defs><rect class="cls-1" width="634" height="447"/><rect class="cls-2" x="66" y="84" width="87" height="166"/><rect class="cls-2" x="183" y="96" width="29" height="152"/><rect class="cls-2" x="207" y="177" width="195" height="71"/><rect class="cls-2" x="242" y="27" width="47" height="161"/><rect class="cls-2" x="323" y="18" width="79" height="161"/><rect class="cls-2" x="439" y="91" width="47" height="161"/><rect class="cls-2" x="500" y="172" width="67" height="80"/><rect class="cls-2" x="469" y="207" width="47" height="39.93"/><rect class="cls-2" x="37" y="243" width="559" height="24"/><rect class="cls-1" x="371" y="27" width="19" height="29"/><rect class="cls-1" x="260" y="105" width="19" height="29"/><rect class="cls-1" x="260" y="152" width="19" height="29"/><rect class="cls-1" x="533" y="193" width="19" height="29"/><rect class="cls-1" x="81" y="96" width="19" height="29"/><path class="cls-2" d="M606.72,725l7.11-8.5c4.14,3.38,9.25,5.71,14.55,5.71s7.69-2,7.69-4.71c0-3.94-3.25-4.9-8.43-7.07l-7.14-3c-6.06-2.31-11.6-7-11.6-14.92,0-9.07,8.17-16.32,20.06-16.32a26.51,26.51,0,0,1,18.18,7.17l-6.24,7.81c-3.85-2.77-7.27-4.28-12.61-4.28-4.08,0-6.85,1.7-6.85,4.89s3.67,4.5,8.92,6.47l6.69,2.84c7.17,2.68,11.7,7.16,11.7,14.88,0,9.1-7.64,17-21.19,17A31.56,31.56,0,0,1,606.72,725Z" transform="translate(-548 -358)"/><path class="cls-2" d="M658.25,710.81V677.14h12.42v34.93c0,6.55,2.41,10.12,7.56,10.12s7.74-3.57,7.74-10.12V677.14h11.95v33.67c0,14.21-6.39,22.08-19.69,22.08S658.25,725,658.25,710.81Zm4.4-43.88a6.15,6.15,0,1,1,6.14,6.16A5.94,5.94,0,0,1,662.65,666.93Zm18.58,0a6.15,6.15,0,1,1,6.16,6.16A5.95,5.95,0,0,1,681.23,666.93Z" transform="translate(-548 -358)"/><path class="cls-2" d="M708,724.38l25.57-36.87H710.41V677.12h38.52v7.49l-25.59,36.88h25.89v10.39H708Z" transform="translate(-548 -358)"/><path class="cls-2" d="M757.35,704.81c0-18.29,11.14-28.68,25.36-28.68a21.73,21.73,0,0,1,16,7l-6.82,7.66a11.84,11.84,0,0,0-9.17-3.93c-7.19,0-12.57,6.61-12.57,17.57,0,11.26,4.43,17.79,13.06,17.79a8.32,8.32,0,0,0,5.31-1.62v-9.45h-8V701h19.05v25.24a26.19,26.19,0,0,1-17.13,6.63C768.5,732.89,757.35,723.28,757.35,704.81Z" transform="translate(-548 -358)"/><path class="cls-2" d="M811.84,677.14h36.29v10.39h-23.9v11h20.31v10.38H824.23v12.6H849v10.39H811.84Z" transform="translate(-548 -358)"/><path class="cls-2" d="M860,677.14h12.7l11.52,27.22,4.68,12h.29c-.55-5.76-1.71-13.43-1.71-19.89V677.14h11.81v54.74h-12.7l-11.51-27.27-4.69-12h-.29c.56,6.05,1.71,13.38,1.71,19.82v19.42H860Z" transform="translate(-548 -358)"/><path class="cls-2" d="M961.48,677.14h18.41c11.38,0,20.05,3.11,20.05,13.56a12,12,0,0,1-9.35,11.83v.34c7.82,1.44,11.92,5.57,11.92,12.88,0,11.14-9.13,16.13-21,16.13h-20Zm17.84,22c6,0,8.52-2.54,8.52-6.67s-2.67-5.66-8.42-5.66h-5.57v12.33Zm1.13,23.13c6.74,0,10-2.44,10-7.43,0-4.8-3.15-6.79-10-6.79h-6.6v14.22Z" transform="translate(-548 -358)"/><path class="cls-2" d="M1023.46,677.14h14.85l17,54.74h-13.14l-7.06-27.71c-1.39-5.47-3.06-11.88-4.37-17.66h-.34c-1.34,5.78-2.86,12.19-4.25,17.66l-7.11,27.71h-12.68Zm-5.77,32.07h26.19v9.65h-26.19Z" transform="translate(-548 -358)"/><path class="cls-2" d="M1061.45,710.81V677.14h12.41v34.93c0,6.55,2.41,10.12,7.57,10.12s7.74-3.57,7.74-10.12V677.14h11.95v33.67c0,14.21-6.39,22.08-19.69,22.08S1061.45,725,1061.45,710.81Z" transform="translate(-548 -358)"/><path class="cls-2" d="M690.44,791l4.06-4.86a13.4,13.4,0,0,0,8.32,3.27c3,0,4.39-1.17,4.39-2.7,0-2.25-1.86-2.79-4.82-4l-4.07-1.74c-3.47-1.32-6.63-4-6.63-8.53,0-5.18,4.66-9.32,11.46-9.32a15.18,15.18,0,0,1,10.39,4.09L710,771.64a11.17,11.17,0,0,0-7.21-2.45c-2.33,0-3.91,1-3.91,2.8s2.1,2.57,5.1,3.69l3.82,1.62c4.1,1.54,6.69,4.09,6.69,8.51,0,5.2-4.37,9.7-12.11,9.7A18,18,0,0,1,690.44,791Z" transform="translate(-548 -358)"/><path class="cls-2" d="M730.18,776.66h-9.59v-5.54h16.65v23.82h-7.06Zm-1.48-13.58a4.7,4.7,0,0,1,9.38,0c0,2.6-2,4.32-4.69,4.32S728.7,765.68,728.7,763.08Z" transform="translate(-548 -358)"/><path class="cls-2" d="M748.84,783c0-7.93,6.44-12.5,13.77-12.5a12.86,12.86,0,0,1,8.91,3.24l-3.25,4.38a8.69,8.69,0,0,0-5.27-1.91c-4.1,0-6.93,2.66-6.93,6.79a6.38,6.38,0,0,0,6.69,6.77,11,11,0,0,0,6.27-2.27l2.85,4.46a15.48,15.48,0,0,1-9.79,3.51C754.59,795.51,748.84,790.94,748.84,783Z" transform="translate(-548 -358)"/><path class="cls-2" d="M777.88,761.31H785v8.21l-.42,4.58h.18a10.79,10.79,0,0,1,7.9-3.56c5.34,0,7.71,3.68,7.71,9.69v14.71h-7.06v-13.8c0-3.17-.92-4.58-3.5-4.58-1.88,0-3.16.88-4.81,2.48v15.9h-7.07Z" transform="translate(-548 -358)"/><path class="cls-2" d="M805.86,783a12.15,12.15,0,0,1,12.39-12.47c7.35,0,11.21,5,11.21,11.43a21.33,21.33,0,0,1-.29,3.17H811.1V780.4h13.29l-1.11,1.35c0-3.83-1.66-5.83-4.79-5.83-3.49,0-5.78,2.36-5.78,7.09,0,5,2.69,7.12,7.32,7.12a13,13,0,0,0,6.13-1.66l2.34,4.26a18.25,18.25,0,0,1-9.44,2.78C811.64,795.51,805.86,790.93,805.86,783Z" transform="translate(-548 -358)"/><path class="cls-2" d="M837.56,771.12h5.81l.55,5.21h.17a11.05,11.05,0,0,1,9.65-5.79,9.89,9.89,0,0,1,4.58,1l-1.43,5.94a12.41,12.41,0,0,0-4.22-.7c-2.95,0-6,1.54-8,5.81v12.39h-7.07Z" transform="translate(-548 -358)"/><path class="cls-2" d="M899.37,792.34h-.17l-.6,2.6h-5.52V761.31h7.07v8.21l-.26,3.75h.17a9.61,9.61,0,0,1,6.51-2.73c5.94,0,9.6,4.76,9.6,12.07,0,8.21-5,12.9-10.31,12.9A9.14,9.14,0,0,1,899.37,792.34Zm9.56-9.61c0-4.27-1.4-6.4-4.39-6.4a5.9,5.9,0,0,0-4.39,2.21v9.61a6.19,6.19,0,0,0,4.1,1.58C906.83,789.73,908.93,787.66,908.93,782.73Z" transform="translate(-548 -358)"/><path class="cls-2" d="M921.36,788.33c0-5.33,4.41-8.05,15.66-8.73-.24-2.13-1.85-3.44-5-3.44-2.29,0-4.58.89-7.26,2.23l-2.52-4.62a22.6,22.6,0,0,1,11.15-3.23c6.7,0,10.75,3.49,10.75,10.78v13.62h-5.77l-.51-2.69h-.18a14.53,14.53,0,0,1-8.44,3.26C924.37,795.51,921.36,792.34,921.36,788.33Zm15.66-.56v-3.91c-7,.36-8.88,1.87-8.88,3.91,0,1.53,1.29,2.27,3.28,2.27A9.14,9.14,0,0,0,937,787.77Z" transform="translate(-548 -358)"/><path class="cls-2" d="M950.19,785.83V771.12h7.07v13.8c0,3.15.84,4.57,3.47,4.57,1.75,0,3-.62,4.61-2.71V771.12h7.07v23.82h-5.77l-.51-3.43h-.19a10.24,10.24,0,0,1-8,4C952.49,795.51,950.19,791.83,950.19,785.83Z" transform="translate(-548 -358)"/><path class="cls-2" d="M978.66,783a12.15,12.15,0,0,1,12.39-12.47c7.34,0,11.21,5,11.21,11.43a21.33,21.33,0,0,1-.29,3.17H983.9V780.4h13.29l-1.11,1.35c0-3.83-1.67-5.83-4.79-5.83-3.49,0-5.78,2.36-5.78,7.09,0,5,2.69,7.12,7.32,7.12a13,13,0,0,0,6.13-1.66l2.34,4.26a18.25,18.25,0,0,1-9.44,2.78C984.44,795.51,978.66,790.93,978.66,783Z" transform="translate(-548 -358)"/><path class="cls-2" d="M1008.28,771.12H1014l.51,3.17h.19a11.56,11.56,0,0,1,8.23-3.75c5.38,0,7.75,3.68,7.75,9.69v14.71h-7.06v-13.8c0-3.17-.92-4.58-3.5-4.58-1.88,0-3.16.88-4.81,2.48v15.9h-7.07Z" transform="translate(-548 -358)"/><path class="cls-2" d="M1042.43,789.87a5.59,5.59,0,1,1,5.59,5.64A5.48,5.48,0,0,1,1042.43,789.87Z" transform="translate(-548 -358)"/></svg>