<svg id="Ebene_1" data-name="Ebene 1" xmlns="http://www.w3.org/2000/svg" viewBox="0 0 715 730"><defs><style>.cls-1{fill:#fff;}.cls-2{fill:#303131;}.cls-3{font-size:60px;font-family:Rockwell-ExtraBold, Rockwell Extra Bold;font-weight:800;}.cls-3,.cls-6{fill:#551414;}.cls-4{letter-spacing:-0.02em;}.cls-5{letter-spacing:0em;}</style></defs><ellipse class="cls-1" cx="357.5" cy="365" rx="357.5" ry="365"/><rect class="cls-2" x="107" y="220" width="87" height="166"/><rect class="cls-2" x="219" y="234" width="29" height="152"/><rect class="cls-2" x="248" y="315" width="195" height="71"/><rect class="cls-2" x="287" y="154" width="47" height="161"/><rect class="cls-2" x="364" y="154" width="79" height="161"/><rect class="cls-2" x="480" y="234" width="47" height="161"/><rect class="cls-2" x="541" y="315" width="67" height="80"/><rect class="cls-2" x="510" y="350" width="47" height="39.93"/><rect class="cls-2" x="107" y="386" width="501" height="24"/><rect class="cls-2" x="608" y="386" width="56" height="24"/><rect class="cls-2" x="51" y="386" width="56" height="24"/><rect class="cls-1" x="412" y="170" width="19" height="29"/><rect class="cls-1" x="301" y="239" width="19" height="29"/><rect class="cls-1" x="301" y="289" width="19" height="29"/><rect class="cls-1" x="574" y="336" width="19" height="29"/><rect class="cls-1" x="122" y="239" width="19" height="29"/><text class="cls-3" transform="translate(141.49 510.78)">SÜZGEN <tspan class="cls-4" x="286.88" y="0">B</tspan><tspan class="cls-5" x="336.91" y="0">A</tspan><tspan x="382.21" y="0">U </tspan></text><path class="cls-6" d="M727.79,772l3-3.55a9.75,9.75,0,0,0,6.06,2.38c2.19,0,3.2-.85,3.2-2,0-1.64-1.35-2-3.51-3l-3-1.26c-2.53-1-4.84-2.9-4.84-6.22,0-3.78,3.41-6.8,8.36-6.8a11,11,0,0,1,7.58,3l-2.6,3.25a8.21,8.21,0,0,0-5.26-1.78c-1.7,0-2.85.7-2.85,2s1.53,1.87,3.71,2.69l2.79,1.18c3,1.12,4.88,3,4.88,6.2,0,3.8-3.18,7.08-8.83,7.08A13.17,13.17,0,0,1,727.79,772Z" transform="translate(-507 -215)"/><path class="cls-6" d="M756.76,761.5h-7v-4h12.14v17.37h-5.15Zm-1.08-9.9a3.43,3.43,0,0,1,6.84,0,3.43,3.43,0,0,1-6.84,0Z" transform="translate(-507 -215)"/><path class="cls-6" d="M770.37,766.16c0-5.78,4.69-9.12,10-9.12a9.4,9.4,0,0,1,6.5,2.36l-2.37,3.2a6.33,6.33,0,0,0-3.85-1.4,4.74,4.74,0,0,0-5.05,5,4.65,4.65,0,0,0,4.88,4.93,8,8,0,0,0,4.57-1.65l2.08,3.25a11.29,11.29,0,0,1-7.14,2.56C774.56,775.25,770.37,771.92,770.37,766.16Z" transform="translate(-507 -215)"/><path class="cls-6" d="M791.54,750.31h5.16v6l-.3,3.35h.13a7.81,7.81,0,0,1,5.75-2.6c3.9,0,5.63,2.69,5.63,7.07v10.72h-5.15V764.77c0-2.31-.67-3.34-2.55-3.34-1.37,0-2.31.64-3.51,1.81v11.59h-5.16Z" transform="translate(-507 -215)"/><path class="cls-6" d="M812,766.14a8.86,8.86,0,0,1,9-9.1c5.36,0,8.18,3.62,8.18,8.34a15,15,0,0,1-.22,2.31H815.77v-3.46h9.69l-.81,1c0-2.78-1.22-4.25-3.5-4.25-2.54,0-4.21,1.73-4.21,5.18,0,3.6,2,5.18,5.34,5.18a9.52,9.52,0,0,0,4.47-1.2l1.71,3.1a13.33,13.33,0,0,1-6.89,2C816.16,775.25,812,771.91,812,766.14Z" transform="translate(-507 -215)"/><path class="cls-6" d="M835.06,757.46h4.23l.41,3.8h.12a8.08,8.08,0,0,1,7-4.22,7.13,7.13,0,0,1,3.34.71l-1.05,4.32a9.11,9.11,0,0,0-3.07-.51c-2.15,0-4.37,1.12-5.87,4.24v9h-5.15Z" transform="translate(-507 -215)"/><path class="cls-6" d="M880.13,772.94H880l-.43,1.89h-4V750.31h5.16v6l-.19,2.74h.13a7,7,0,0,1,4.74-2c4.34,0,7,3.48,7,8.8,0,6-3.64,9.41-7.52,9.41A6.69,6.69,0,0,1,880.13,772.94Zm7-7c0-3.12-1-4.67-3.2-4.67a4.32,4.32,0,0,0-3.2,1.61v7a4.53,4.53,0,0,0,3,1.15C885.57,771,887.1,769.52,887.1,765.93Z" transform="translate(-507 -215)"/><path class="cls-6" d="M896.17,770c0-3.89,3.21-5.88,11.42-6.37-.18-1.56-1.35-2.51-3.68-2.51a12.09,12.09,0,0,0-5.3,1.63l-1.84-3.38A16.56,16.56,0,0,1,904.9,757c4.88,0,7.84,2.54,7.84,7.86v9.93h-4.21l-.37-2H908a10.61,10.61,0,0,1-6.15,2.38C898.36,775.25,896.17,772.93,896.17,770Zm11.42-.42v-2.84c-5.11.25-6.48,1.36-6.48,2.84,0,1.12.94,1.66,2.39,1.66A6.62,6.62,0,0,0,907.59,769.6Z" transform="translate(-507 -215)"/><path class="cls-6" d="M917.19,768.19V757.46h5.15v10.06c0,2.31.61,3.34,2.53,3.34,1.28,0,2.18-.45,3.37-2V757.46h5.15v17.37h-4.21l-.37-2.5h-.14a7.48,7.48,0,0,1-5.86,2.92C918.87,775.25,917.19,772.57,917.19,768.19Z" transform="translate(-507 -215)"/><path class="cls-6" d="M938,766.14a8.86,8.86,0,0,1,9-9.1c5.36,0,8.18,3.62,8.18,8.34a15,15,0,0,1-.22,2.31H941.77v-3.46h9.69l-.81,1c0-2.78-1.22-4.25-3.5-4.25-2.54,0-4.21,1.73-4.21,5.18,0,3.6,2,5.18,5.34,5.18a9.52,9.52,0,0,0,4.47-1.2l1.71,3.1a13.33,13.33,0,0,1-6.89,2C942.16,775.25,938,771.91,938,766.14Z" transform="translate(-507 -215)"/><path class="cls-6" d="M959.54,757.46h4.2l.37,2.32h.14a8.43,8.43,0,0,1,6-2.74c3.92,0,5.65,2.69,5.65,7.07v10.72h-5.15V764.77c0-2.31-.67-3.34-2.55-3.34-1.37,0-2.31.64-3.51,1.81v11.59h-5.16Z" transform="translate(-507 -215)"/><path class="cls-6" d="M984.45,771.14a4.08,4.08,0,1,1,4.07,4.11A4,4,0,0,1,984.45,771.14Z" transform="translate(-507 -215)"/></svg>