<?xml version="1.0" encoding="iso-8859-1"?>
<!-- Generator: Adobe Illustrator 19.0.0, SVG Export Plug-In . SVG Version: 6.00 Build 0)  -->
<svg version="1.1" id="Capa_1" xmlns="http://www.w3.org/2000/svg" xmlns:xlink="http://www.w3.org/1999/xlink" x="0px" y="0px"
	 viewBox="0 0 512 512" style="enable-background:new 0 0 512 512;" xml:space="preserve">
<g>
	<g>
		<path d="M47.164,230.939v-16.707H13.75c-4.611,0-8.354,3.742-8.354,8.354V256c0,4.611,3.742,8.354,8.354,8.354h33.414v-16.707
			H22.104v-16.707H47.164z"/>
	</g>
</g>
<g>
	<g>
		<rect x="80.579" y="247.646" width="350.851" height="16.707"/>
	</g>
</g>
<g>
	<g>
		<path d="M498.258,214.232h-33.414v16.707h25.061v16.707h-25.061v16.707h33.414c4.611,0,8.354-3.742,8.354-8.354v-33.414
			C506.612,217.974,502.878,214.232,498.258,214.232z"/>
	</g>
</g>
<g>
	<g>
		<rect x="80.579" y="214.232" width="350.851" height="16.707"/>
	</g>
</g>
<g>
	<g>
		<path d="M80.579,55.514H47.164c-4.611,0-8.354,3.742-8.354,8.354V347.89h16.707V72.221h16.707v250.608h16.707V63.867
			C88.932,59.256,85.19,55.514,80.579,55.514z"/>
	</g>
</g>
<g>
	<g>
		<path d="M464.844,55.514H431.43c-4.62,0-8.354,3.742-8.354,8.354v258.961h16.707V72.221h16.707V347.89h16.707V63.867
			C473.198,59.256,469.464,55.514,464.844,55.514z"/>
	</g>
</g>
<g>
	<g>
		<rect x="105.64" y="105.635" width="16.707" height="116.95"/>
	</g>
</g>
<g>
	<g>
		<rect x="139.054" y="130.696" width="16.707" height="91.889"/>
	</g>
</g>
<g>
	<g>
		<rect x="172.468" y="147.403" width="16.707" height="75.182"/>
	</g>
</g>
<g>
	<g>
		<rect x="205.883" y="155.757" width="16.707" height="66.829"/>
	</g>
</g>
<g>
	<g>
		<rect x="247.651" y="155.757" width="16.707" height="66.829"/>
	</g>
</g>
<g>
	<g>
		<rect x="289.419" y="155.757" width="16.707" height="66.829"/>
	</g>
</g>
<g>
	<g>
		<rect x="322.833" y="147.403" width="16.707" height="75.182"/>
	</g>
</g>
<g>
	<g>
		<rect x="356.247" y="130.696" width="16.707" height="91.889"/>
	</g>
</g>
<g>
	<g>
		<rect x="389.662" y="105.635" width="16.707" height="116.95"/>
	</g>
</g>
<g>
	<g>
		<path d="M424.379,59.382c-15.571,24.476-36.747,45.661-61.249,61.249c-92.833,59.06-216.442,31.585-275.502-61.249l-14.101,8.963
			c41.175,64.715,111.27,100.118,182.818,100.118c39.696,0,79.852-10.893,115.764-33.74c26.539-16.891,49.487-39.847,66.369-66.378
			L424.379,59.382z"/>
	</g>
</g>
<g>
	<g>
		<path d="M40.106,59.398C29.137,76.707,15.646,92.194,0,105.418l10.784,12.756c16.941-14.318,31.56-31.092,43.43-49.838
			L40.106,59.398z"/>
	</g>
</g>
<g>
	<g>
		<path d="M471.894,59.398l-14.109,8.938c11.87,18.729,26.481,35.494,43.43,49.821L512,105.401
			C496.345,92.169,482.854,76.699,471.894,59.398z"/>
	</g>
</g>
<g>
	<g>
		<path d="M489.905,322.829c0-4.62-3.734-8.354-8.354-8.354c-4.62,0-8.354,3.734-8.354,8.354c0,9.214-7.493,16.707-16.707,16.707
			c-9.214,0-16.707-7.493-16.707-16.707c0-4.62-3.734-8.354-8.354-8.354c-4.62,0-8.354,3.734-8.354,8.354
			c0,9.214-7.493,16.707-16.707,16.707c-9.214,0-16.707-7.493-16.707-16.707c0-4.62-3.734-8.354-8.354-8.354
			c-4.62,0-8.354,3.734-8.354,8.354c0,9.214-7.493,16.707-16.707,16.707c-9.214,0-16.707-7.493-16.707-16.707
			c0-4.62-3.734-8.354-8.354-8.354c-4.62,0-8.354,3.734-8.354,8.354c0,9.214-7.493,16.707-16.707,16.707
			c-9.214,0-16.707-7.493-16.707-16.707c0-4.62-3.734-8.354-8.354-8.354c-4.62,0-8.354,3.734-8.354,8.354
			c0,9.214-7.493,16.707-16.707,16.707c-9.214,0-16.707-7.493-16.707-16.707c0-4.62-3.742-8.354-8.354-8.354
			c-4.611,0-8.354,3.734-8.354,8.354c0,9.214-7.493,16.707-16.707,16.707c-9.214,0-16.707-7.493-16.707-16.707
			c0-4.62-3.742-8.354-8.354-8.354c-4.611,0-8.354,3.734-8.354,8.354c0,9.214-7.493,16.707-16.707,16.707
			c-9.214,0-16.707-7.493-16.707-16.707c0-4.62-3.742-8.354-8.354-8.354c-4.611,0-8.354,3.734-8.354,8.354
			c0,9.214-7.493,16.707-16.707,16.707s-16.707-7.493-16.707-16.707c0-4.62-3.742-8.354-8.354-8.354
			c-4.611,0-8.354,3.734-8.354,8.354c0,9.214-7.493,16.707-16.707,16.707c-9.214,0-16.707-7.493-16.707-16.707
			c0-4.62-3.742-8.354-8.354-8.354c-4.611,0-8.354,3.734-8.354,8.354c0,9.214-7.493,16.707-16.707,16.707v16.707
			c9.966,0,18.938-4.386,25.061-11.336c6.123,6.95,15.095,11.336,25.061,11.336c9.966,0,18.938-4.386,25.061-11.336
			c6.123,6.95,15.095,11.336,25.061,11.336s18.938-4.386,25.061-11.336c6.123,6.95,15.095,11.336,25.061,11.336
			c9.966,0,18.938-4.386,25.061-11.336c6.123,6.95,15.095,11.336,25.061,11.336s18.938-4.386,25.061-11.336
			c6.123,6.95,15.095,11.336,25.061,11.336c9.966,0,18.938-4.386,25.061-11.336c6.123,6.95,15.095,11.336,25.061,11.336
			s18.938-4.386,25.061-11.336c6.123,6.95,15.095,11.336,25.061,11.336c9.966,0,18.938-4.386,25.061-11.336
			c6.123,6.95,15.095,11.336,25.061,11.336s18.938-4.386,25.061-11.336c6.123,6.95,15.095,11.336,25.061,11.336
			c9.966,0,18.938-4.386,25.061-11.336c6.123,6.95,15.095,11.336,25.061,11.336v-16.707
			C497.398,339.536,489.905,332.043,489.905,322.829z"/>
	</g>
</g>
<g>
	<g>
		<path d="M489.905,372.95c0-4.62-3.734-8.354-8.354-8.354c-4.62,0-8.354,3.734-8.354,8.354c0,9.214-7.493,16.707-16.707,16.707
			c-9.214,0-16.707-7.493-16.707-16.707c0-4.62-3.734-8.354-8.354-8.354c-4.62,0-8.354,3.734-8.354,8.354
			c0,9.214-7.493,16.707-16.707,16.707c-9.214,0-16.707-7.493-16.707-16.707c0-4.62-3.734-8.354-8.354-8.354
			c-4.62,0-8.354,3.734-8.354,8.354c0,9.214-7.493,16.707-16.707,16.707c-9.214,0-16.707-7.493-16.707-16.707
			c0-4.62-3.734-8.354-8.354-8.354c-4.62,0-8.354,3.734-8.354,8.354c0,9.214-7.493,16.707-16.707,16.707
			c-9.214,0-16.707-7.493-16.707-16.707c0-4.62-3.734-8.354-8.354-8.354c-4.62,0-8.354,3.734-8.354,8.354
			c0,9.214-7.493,16.707-16.707,16.707c-9.214,0-16.707-7.493-16.707-16.707c0-4.62-3.742-8.354-8.354-8.354
			c-4.611,0-8.354,3.734-8.354,8.354c0,9.214-7.493,16.707-16.707,16.707c-9.214,0-16.707-7.493-16.707-16.707
			c0-4.62-3.742-8.354-8.354-8.354c-4.611,0-8.354,3.734-8.354,8.354c0,9.214-7.493,16.707-16.707,16.707
			c-9.214,0-16.707-7.493-16.707-16.707c0-4.62-3.742-8.354-8.354-8.354c-4.611,0-8.354,3.734-8.354,8.354
			c0,9.214-7.493,16.707-16.707,16.707s-16.707-7.493-16.707-16.707c0-4.62-3.742-8.354-8.354-8.354
			c-4.611,0-8.354,3.734-8.354,8.354c0,9.214-7.493,16.707-16.707,16.707c-9.214,0-16.707-7.493-16.707-16.707
			c0-4.62-3.742-8.354-8.354-8.354c-4.611,0-8.354,3.734-8.354,8.354c0,9.214-7.493,16.707-16.707,16.707v16.707
			c9.966,0,18.938-4.386,25.061-11.336c6.123,6.95,15.095,11.336,25.061,11.336c9.966,0,18.938-4.386,25.061-11.336
			c6.123,6.95,15.095,11.336,25.061,11.336s18.938-4.386,25.061-11.336c6.123,6.95,15.095,11.336,25.061,11.336
			c9.966,0,18.938-4.386,25.061-11.336c6.123,6.95,15.095,11.336,25.061,11.336s18.938-4.386,25.061-11.336
			c6.123,6.95,15.095,11.336,25.061,11.336c9.966,0,18.938-4.386,25.061-11.336c6.123,6.95,15.095,11.336,25.061,11.336
			s18.938-4.386,25.061-11.336c6.123,6.95,15.095,11.336,25.061,11.336c9.966,0,18.938-4.386,25.061-11.336
			c6.123,6.95,15.095,11.336,25.061,11.336s18.938-4.386,25.061-11.336c6.123,6.95,15.095,11.336,25.061,11.336
			c9.966,0,18.938-4.386,25.061-11.336c6.123,6.95,15.095,11.336,25.061,11.336v-16.707
			C497.398,389.657,489.905,382.164,489.905,372.95z"/>
	</g>
</g>
<g>
	<g>
		<path d="M489.905,423.072c0-4.62-3.734-8.354-8.354-8.354c-4.62,0-8.354,3.734-8.354,8.354c0,9.214-7.493,16.707-16.707,16.707
			c-9.214,0-16.707-7.493-16.707-16.707c0-4.62-3.734-8.354-8.354-8.354c-4.62,0-8.354,3.734-8.354,8.354
			c0,9.214-7.493,16.707-16.707,16.707c-9.214,0-16.707-7.493-16.707-16.707c0-4.62-3.734-8.354-8.354-8.354
			c-4.62,0-8.354,3.734-8.354,8.354c0,9.214-7.493,16.707-16.707,16.707c-9.214,0-16.707-7.493-16.707-16.707
			c0-4.62-3.734-8.354-8.354-8.354c-4.62,0-8.354,3.734-8.354,8.354c0,9.214-7.493,16.707-16.707,16.707
			c-9.214,0-16.707-7.493-16.707-16.707c0-4.62-3.734-8.354-8.354-8.354c-4.62,0-8.354,3.734-8.354,8.354
			c0,9.214-7.493,16.707-16.707,16.707c-9.214,0-16.707-7.493-16.707-16.707c0-4.62-3.742-8.354-8.354-8.354
			c-4.611,0-8.354,3.734-8.354,8.354c0,9.214-7.493,16.707-16.707,16.707c-9.214,0-16.707-7.493-16.707-16.707
			c0-4.62-3.742-8.354-8.354-8.354c-4.611,0-8.354,3.734-8.354,8.354c0,9.214-7.493,16.707-16.707,16.707
			c-9.214,0-16.707-7.493-16.707-16.707c0-4.62-3.742-8.354-8.354-8.354c-4.611,0-8.354,3.734-8.354,8.354
			c0,9.214-7.493,16.707-16.707,16.707s-16.707-7.493-16.707-16.707c0-4.62-3.742-8.354-8.354-8.354
			c-4.611,0-8.354,3.734-8.354,8.354c0,9.214-7.493,16.707-16.707,16.707c-9.214,0-16.707-7.493-16.707-16.707
			c0-4.62-3.742-8.354-8.354-8.354c-4.611,0-8.354,3.734-8.354,8.354c0,9.214-7.493,16.707-16.707,16.707v16.707
			c9.966,0,18.938-4.386,25.061-11.336c6.123,6.95,15.095,11.336,25.061,11.336c9.966,0,18.938-4.386,25.061-11.336
			c6.123,6.95,15.095,11.336,25.061,11.336s18.938-4.386,25.061-11.336c6.123,6.95,15.095,11.336,25.061,11.336
			c9.966,0,18.938-4.386,25.061-11.336c6.123,6.95,15.095,11.336,25.061,11.336s18.938-4.386,25.061-11.336
			c6.123,6.95,15.095,11.336,25.061,11.336c9.966,0,18.938-4.386,25.061-11.336c6.123,6.95,15.095,11.336,25.061,11.336
			s18.938-4.386,25.061-11.336c6.123,6.95,15.095,11.336,25.061,11.336c9.966,0,18.938-4.386,25.061-11.336
			c6.123,6.95,15.095,11.336,25.061,11.336s18.938-4.386,25.061-11.336c6.123,6.95,15.095,11.336,25.061,11.336
			c9.966,0,18.938-4.386,25.061-11.336c6.123,6.95,15.095,11.336,25.061,11.336v-16.707
			C497.398,439.779,489.905,432.286,489.905,423.072z"/>
	</g>
</g>
<g>
</g>
<g>
</g>
<g>
</g>
<g>
</g>
<g>
</g>
<g>
</g>
<g>
</g>
<g>
</g>
<g>
</g>
<g>
</g>
<g>
</g>
<g>
</g>
<g>
</g>
<g>
</g>
<g>
</g>
</svg>
