<?xml version="1.0" encoding="iso-8859-1"?>
<!-- Generator: Adobe Illustrator 19.0.0, SVG Export Plug-In . SVG Version: 6.00 Build 0)  -->
<svg version="1.1" id="Capa_1" xmlns="http://www.w3.org/2000/svg" xmlns:xlink="http://www.w3.org/1999/xlink" x="0px" y="0px"
	 viewBox="0 0 464 464" style="enable-background:new 0 0 464 464;" xml:space="preserve">
<g>
	<g>
		<path d="M424,436V204h16c4.418-0.001,7.999-3.584,7.998-8.002c-0.001-2.417-1.094-4.704-2.974-6.222L424,172.8V68h16
			c4.418,0,8-3.582,8-8V20c0-4.418-3.582-8-8-8H336c-4.418,0-8,3.582-8,8v40c0,4.418,3.582,8,8,8h16v46.64L237.024,21.776
			c-2.932-2.366-7.116-2.366-10.048,0l-208,168c-3.437,2.776-3.974,7.813-1.198,11.25c1.518,1.88,3.805,2.973,6.222,2.974h48v34.8
			L4.752,268.688C1.862,269.972,0,272.838,0,276v176h72h392v-16H424z M72,436H16V313.2l56-24.888V436z M72,270.8l-56,24.888V281.2
			l56-24.888V270.8z M344,52V28h88v24H344z M408,68v91.872l-40-32.304V68H408z M264,436h-64V332h64V436z M376,436h-96V324
			c0-4.418-3.582-8-8-8h-80c-4.418,0-8,3.582-8,8v112H88V204h288V436z M94.808,188L231.864,78.344L362.08,188H94.808z M408,436h-16
			V204h16V436z M386.96,188L237.16,61.88c-2.921-2.464-7.178-2.518-10.16-0.128L69.192,188H46.64L232,38.288L417.36,188H386.96z"/>
	</g>
</g>
<g>
	<g>
		<path d="M176,220h-64c-4.418,0-8,3.582-8,8v64c0,4.418,3.582,8,8,8h64c4.418,0,8-3.582,8-8v-64C184,223.582,180.418,220,176,220z
			 M168,284h-48v-48h48V284z"/>
	</g>
</g>
<g>
	<g>
		<path d="M352,220h-64c-4.418,0-8,3.582-8,8v64c0,4.418,3.582,8,8,8h64c4.418,0,8-3.582,8-8v-64C360,223.582,356.418,220,352,220z
			 M344,284h-48v-48h48V284z"/>
	</g>
</g>
<g>
</g>
<g>
</g>
<g>
</g>
<g>
</g>
<g>
</g>
<g>
</g>
<g>
</g>
<g>
</g>
<g>
</g>
<g>
</g>
<g>
</g>
<g>
</g>
<g>
</g>
<g>
</g>
<g>
</g>
</svg>
