<svg height="480pt" viewBox="0 -4 480 480" width="480pt" xmlns="http://www.w3.org/2000/svg"><path d="m464 273.472656v-49.472656c-.027344-11.113281-7.679688-20.753906-18.496094-23.304688-12.535156-81.066406-71.40625-147.269531-150.457031-169.183593-3.988281-18.375-20.242187-31.4921878-39.046875-31.511719h-32c-18.800781.0351562-35.042969 13.144531-39.046875 31.511719-79.050781 21.914062-137.921875 88.117187-150.457031 169.183593-10.816406 2.550782-18.46875 12.191407-18.496094 23.304688v49.472656c-9.554688 3.378906-15.9570312 12.394532-16 22.527344v32c0 13.253906 10.746094 24 24 24h8v64c0 .175781.0625.335938.078125.511719.003906.367187.03125.734375.089844 1.097656 0 .152344.105469.277344.144531.429687.066406.273438.152344.539063.253906.800782.167969.4375.371094.863281.609375 1.265625.132813.226562.277344.449219.433594.664062.300781.394531.636719.765625 1.007813 1.101563.167968.152344.320312.320312.496093.464844.582031.460937 1.226563.839843 1.910157 1.128906l120 48c1.441406.578125 3.023437.722656 4.542968.40625l78.433594-15.710938 78.398438 15.679688c.527343.109375 1.0625.164062 1.601562.160156 1.019531 0 2.027344-.195312 2.976562-.566406l120-48c3.035157-1.21875 5.027344-4.160156 5.023438-7.433594v-64h8c13.253906 0 24-10.746094 24-24v-32c-.042969-10.132812-6.445312-19.148438-16-22.527344zm-34.800781-73.472656h-37.199219c-52.996094-.058594-95.941406-43.003906-96-96v-55.574219c69.429688 21.367188 120.929688 79.976563 133.199219 151.574219zm-245.199219-151.574219v55.574219c-.058594 52.996094-43.003906 95.941406-96 96h-37.199219c12.269531-71.597656 63.769531-130.207031 133.199219-151.574219zm-152 175.574219c0-4.417969 3.582031-8 8-8h48c61.828125-.066406 111.933594-50.171875 112-112v-64c0-13.253906 10.746094-24 24-24h32c13.253906 0 24 10.746094 24 24v64c.066406 61.828125 50.171875 111.933594 112 112h48c4.417969 0 8 3.582031 8 8v48h-165.808594c7.484375-6.566406 13.335938-14.78125 17.097656-24h20.710938c4.417969 0 8-3.582031 8-8v-32c0-4.417969-3.582031-8-8-8h-20.710938c-9.757812-24.175781-33.21875-40.003906-59.289062-40.003906s-49.53125 15.828125-59.289062 40.003906h-20.710938c-4.417969 0-8 3.582031-8 8v32c0 4.417969 3.582031 8 8 8h20.710938c3.761718 9.21875 9.613281 17.433594 17.097656 24h-165.808594zm208-48c14.734375-.0625 28.675781 6.675781 37.78125 18.261719 9.105469 11.585937 12.359375 26.722656 8.820312 41.027343l-24.945312-24.945312-11.3125 11.3125 29.328125 29.328125c-5.6875 8.308594-13.832031 14.632813-23.296875 18.078125l-42.71875-42.71875-11.3125 11.3125 34.167969 34.167969c-25.515625-2.167969-44.832031-23.984375-43.902344-49.574219.933594-25.589844 21.785156-45.941406 47.390625-46.25zm64 40h8v16h-8zm-128 16h-8v-16h8zm-121.769531 181.078125 61.082031-61.078125h75.441406l-73.152344 86.398438zm-6.230469-61.078125h44.6875l-44.6875 44.6875zm112.800781 103.6875-27.519531-10.992188 78.429688-92.695312h112.976562l-88.632812 88.632812zm115.566407-8.582031-20.101563-4 91.046875-91.105469h73.375l-103.3125 103.3125zm76.890624-5.007813 78.742188-78.785156v47.273438zm110.742188-114.097656c0 4.417969-3.582031 8-8 8h-432c-4.417969 0-8-3.582031-8-8v-32c0-4.417969 3.582031-8 8-8h432c4.417969 0 8 3.582031 8 8zm0 0"/></svg>